<?xml version="1.0" standalone="no"?>
<!DOCTYPE svg PUBLIC "-//W3C//DTD SVG 20010904//EN"
 "http://www.w3.org/TR/2001/REC-SVG-20010904/DTD/svg10.dtd">
<svg version="1.0" xmlns="http://www.w3.org/2000/svg"
 width="198.000000pt" height="210.000000pt" viewBox="0 0 198.000000 210.000000"
 preserveAspectRatio="xMidYMid meet">

<g transform="translate(0.000000,210.000000) scale(0.100000,-0.100000)"
fill="#000000" stroke="none">
<path d="M1540 1962 c-50 -27 -82 -89 -88 -173 -4 -60 0 -81 27 -158 35 -98
34 -110 -18 -174 -39 -49 -71 -135 -71 -191 0 -52 30 -144 61 -185 12 -17 20
-33 18 -36 -3 -3 -68 -12 -145 -20 -133 -14 -180 -21 -215 -31 -14 -4 -17 12
-21 119 -4 87 -11 133 -22 156 l-17 32 61 59 c33 33 60 67 60 75 0 27 -83 105
-124 116 -40 11 -112 4 -122 -12 -10 -17 -29 -9 -46 21 -20 35 -79 64 -111 55
-99 -28 -138 -75 -139 -174 -1 -47 5 -69 26 -105 15 -25 31 -46 35 -46 5 0 28
25 51 55 23 30 61 71 83 92 23 20 42 43 44 51 1 8 6 19 12 25 8 8 11 5 11 -10
0 -12 -4 -24 -9 -27 -10 -7 -3 -82 10 -107 6 -12 1 -25 -16 -45 -27 -32 -75
-147 -133 -319 l-37 -110 -53 -7 c-58 -7 -102 -37 -102 -70 0 -16 -9 -18 -83
-18 l-84 0 -32 -65 c-18 -36 -37 -67 -41 -70 -7 -4 -5 125 2 130 2 1 19 6 38
11 48 13 62 44 54 119 -5 50 -2 68 15 102 37 71 6 159 -70 198 -37 20 -65 19
-116 -4 -30 -14 -48 -31 -62 -60 -28 -55 -26 -93 9 -162 24 -48 28 -64 20 -85
-24 -61 -10 -89 58 -119 28 -12 32 -19 32 -53 0 -26 -5 -42 -15 -45 -20 -8
-29 11 -14 29 10 12 8 19 -11 39 -45 48 -120 22 -120 -41 0 -28 6 -38 31 -53
30 -18 34 -18 66 -3 40 19 48 12 58 -49 8 -46 -18 -117 -38 -102 -20 16 -75
23 -102 13 -15 -6 -27 -20 -31 -37 -4 -15 -20 -40 -36 -56 -19 -18 -28 -35
-26 -50 3 -21 6 -22 113 -20 61 1 131 5 157 8 l47 6 3 -153 3 -153 368 -3 367
-2 0 333 c0 184 3 336 6 340 7 6 83 -114 142 -223 40 -76 108 -170 123 -170 5
0 55 24 112 52 56 29 106 54 110 56 4 2 6 -56 5 -130 l-3 -133 -42 -3 c-59 -4
-54 -20 5 -17 26 1 68 3 95 3 26 1 47 7 47 13 0 6 -15 9 -37 7 l-38 -3 -3 140
-3 140 31 18 c25 15 30 24 30 56 0 20 -6 46 -14 56 -12 16 -9 21 19 47 62 54
82 132 48 189 l-17 29 46 47 c82 85 97 139 51 193 -26 32 -26 32 -8 63 12 20
20 58 23 107 4 73 3 77 -39 155 -52 98 -57 153 -19 230 19 39 25 66 25 121 0
62 -4 76 -29 112 -52 75 -160 104 -236 64z m178 -39 c76 -61 93 -153 45 -252
-40 -83 -37 -138 10 -233 49 -97 58 -170 30 -243 -17 -45 -22 -50 -49 -51 -17
-1 -46 -8 -64 -17 -44 -22 -60 -21 -60 3 0 13 21 35 60 63 33 24 57 47 53 50
-3 4 -27 -9 -54 -27 -26 -19 -50 -32 -53 -29 -3 4 -6 30 -6 59 0 49 3 55 43
93 23 23 36 41 28 41 -8 0 -25 -10 -38 -22 -13 -12 -25 -19 -27 -17 -3 3 -6
70 -7 149 -2 130 0 145 17 160 34 28 85 110 69 110 -8 0 -26 -20 -41 -45 -31
-54 -44 -57 -44 -10 0 19 -4 35 -10 35 -5 0 -9 -29 -9 -65 1 -86 -6 -94 -47
-54 -19 18 -34 27 -34 20 0 -7 18 -30 40 -50 36 -33 40 -41 40 -85 l0 -48 -35
22 c-19 12 -35 17 -35 11 0 -5 16 -22 35 -37 l35 -26 0 -104 0 -103 -42 24
c-46 27 -62 31 -56 15 2 -5 23 -20 48 -33 43 -22 45 -26 48 -71 2 -27 0 -56
-3 -65 -6 -14 -7 -14 -16 2 -11 18 -39 24 -39 7 0 -5 7 -13 16 -18 27 -15 11
-34 -30 -37 -36 -2 -40 1 -68 44 -40 64 -62 143 -55 204 8 66 33 113 107 204
15 18 12 57 -9 110 -35 89 -44 152 -32 217 12 63 27 87 76 118 44 28 115 20
163 -19z m-603 -450 l33 -38 -26 -29 c-73 -77 -83 -85 -108 -74 -18 9 -22 16
-18 37 5 22 1 29 -20 39 -18 8 -26 19 -26 36 0 30 30 42 60 24 19 -12 23 -10
41 15 12 15 23 27 26 27 3 0 21 -17 38 -37z m-118 -163 c44 -26 52 -73 25
-143 -19 -50 -120 -270 -134 -293 -7 -10 -144 -1 -155 10 -6 5 53 187 99 308
51 133 92 163 165 118z m-619 -135 c44 -49 49 -89 19 -153 -21 -44 -23 -58
-15 -94 12 -54 -2 -95 -38 -108 -14 -6 -30 -8 -35 -4 -17 10 -9 53 16 80 29
31 34 55 7 31 -28 -25 -32 -21 -32 27 0 43 14 69 42 79 7 2 9 8 5 13 -4 4 -16
3 -27 -4 -16 -10 -22 -7 -39 16 -23 32 -39 24 -18 -10 9 -13 17 -54 19 -98 3
-75 3 -75 -22 -72 l-25 3 23 -20 c12 -10 22 -26 22 -35 0 -23 -33 -20 -55 4
-17 19 -18 26 -7 66 11 42 10 49 -18 107 -35 71 -36 82 -14 137 20 49 53 69
115 70 41 0 51 -4 77 -35z m1401 -56 c17 -6 31 -15 31 -20 0 -4 -39 -62 -86
-129 -67 -92 -92 -120 -109 -120 -20 0 -24 7 -35 80 -7 44 -12 83 -12 87 1 13
45 20 70 12 12 -5 22 -5 22 0 0 5 16 19 36 31 23 15 33 28 30 37 -7 16 0 33
13 33 4 0 22 -5 40 -11z m-69 -29 c0 -12 -28 -25 -36 -17 -9 9 6 27 22 27 8 0
14 -5 14 -10z m-40 -31 c0 -5 -9 -9 -20 -9 -22 0 -27 16 -7 23 15 5 27 -1 27
-14z m-141 -39 c13 -7 21 -27 26 -67 3 -32 9 -68 12 -80 4 -19 -1 -22 -49 -32
-29 -5 -80 -13 -113 -16 l-60 -6 -29 48 c-16 26 -45 65 -64 85 -26 27 -31 39
-21 42 8 2 68 9 134 16 65 6 121 13 124 15 7 8 21 6 40 -5z m-297 -77 c25 -24
108 -143 157 -224 33 -57 28 -70 -42 -111 -35 -21 -69 -38 -75 -38 -7 0 -42
46 -79 102 -38 57 -71 107 -75 113 -4 5 -61 12 -127 15 l-119 5 18 35 c10 19
28 56 40 82 22 46 23 47 74 50 28 2 85 2 126 0 63 -4 79 -9 102 -29z m-447
-87 c11 -2 32 -4 48 -5 31 -1 36 -21 11 -45 -10 -11 -34 -16 -75 -16 -61 0
-70 7 -44 34 9 8 11 17 6 21 -6 3 -20 -8 -32 -25 -24 -32 -56 -38 -103 -20
-34 13 -33 26 7 51 27 17 42 19 97 14 36 -3 74 -7 85 -9z m946 -33 c16 -42 1
-98 -39 -147 -51 -64 -64 -50 -60 68 l3 91 35 6 c19 4 38 7 43 8 4 0 12 -11
18 -26z m-123 -80 l-3 -88 -40 -5 c-22 -3 -46 -9 -52 -13 -8 -5 -13 -3 -13 7
0 9 7 16 16 16 12 0 14 5 9 18 -53 125 -45 146 58 151 l28 1 -3 -87z m-131 7
c11 -60 1 -114 -21 -107 -5 2 -27 36 -48 76 -44 82 -41 91 22 91 35 0 35 0 47
-60z m-387 -316 l0 -344 -347 2 -348 3 -3 328 c-2 181 -1 334 1 341 4 9 89 12
351 13 l346 0 0 -343z m-854 309 c5 -17 3 -28 -4 -31 -7 -2 -12 -10 -12 -17 0
-23 -20 -28 -45 -11 -46 30 -25 85 32 86 16 0 25 -8 29 -27z m135 -88 c-5 -53
-9 -60 -30 -63 -41 -6 -47 14 -13 47 18 16 32 38 32 48 0 17 10 38 15 31 1 -2
-1 -30 -4 -63z m1268 -34 c13 -10 22 -23 20 -29 -2 -6 -71 -50 -153 -97 -169
-97 -157 -97 -210 -3 l-27 47 23 14 c147 88 145 87 154 63 3 -8 17 -22 31 -32
25 -16 26 -16 20 6 -5 20 -4 21 12 6 24 -22 29 -20 23 9 -3 18 0 25 12 25 9 0
16 -4 16 -8 0 -5 7 -17 15 -28 15 -19 16 -19 14 1 -4 51 9 58 50 26z"/>
<path d="M426 578 c1 -95 2 -203 3 -240 l1 -68 301 0 c186 0 308 4 319 10 19
10 19 22 16 238 l-4 227 -319 3 -318 2 1 -172z m624 138 c0 -8 -4 -26 -10 -40
-12 -33 -56 -35 -94 -5 -29 23 -62 20 -125 -9 -33 -15 -35 -15 -49 6 -19 29
-80 29 -141 2 -55 -26 -59 -25 -67 6 -6 23 -10 25 -43 19 -20 -4 -42 -12 -49
-18 -10 -8 -16 -7 -23 4 -10 17 -11 33 -2 42 3 4 141 7 305 7 252 0 298 -2
298 -14z m-503 -62 l20 -26 76 26 c60 21 82 24 97 16 11 -6 20 -15 20 -19 0
-19 34 -20 83 -1 66 25 79 25 95 -1 12 -18 21 -21 58 -16 44 5 45 4 42 -22 -3
-23 -10 -28 -60 -40 -52 -14 -59 -13 -76 2 -23 21 -61 22 -109 2 -48 -20 -57
-19 -73 10 -17 31 -42 32 -132 3 -56 -18 -73 -20 -88 -10 -11 7 -24 12 -30 12
-19 0 -10 -16 18 -32 26 -15 31 -15 82 4 92 34 112 34 137 -1 l23 -30 56 20
c70 24 100 24 113 2 8 -16 15 -16 68 -5 33 7 64 12 71 12 8 0 11 -29 11 -95
l0 -95 -40 -11 c-33 -10 -45 -10 -72 3 -28 13 -37 13 -75 0 -40 -13 -47 -13
-83 3 -39 18 -39 18 -106 -10 l-66 -29 -23 30 c-22 27 -25 28 -46 15 -63 -40
-77 -46 -87 -36 -7 7 -8 67 -4 168 l6 157 31 9 c44 13 43 13 63 -15z m30 -318
c19 -22 25 -23 63 -15 23 5 52 17 66 26 23 15 28 14 64 -2 23 -11 49 -15 64
-11 15 3 38 9 52 12 14 4 36 1 49 -6 23 -12 62 -10 98 5 16 7 18 4 15 -21 l-3
-29 -297 0 c-190 0 -299 4 -300 10 -2 6 11 11 28 13 18 2 40 12 50 23 22 24
26 24 51 -5z"/>
<path d="M465 481 c-3 -5 -1 -12 5 -16 6 -4 8 -11 5 -16 -4 -5 5 -14 19 -20
21 -10 34 -8 79 15 65 31 71 32 64 6 -3 -14 1 -24 14 -31 22 -12 42 -7 117 28
l53 25 20 -21 c24 -26 26 -26 89 -2 42 16 51 17 61 5 6 -8 18 -14 27 -14 10 0
6 8 -13 24 l-28 25 -51 -20 c-51 -19 -51 -19 -68 1 -21 26 -38 25 -98 -5 -27
-14 -61 -25 -75 -25 -20 0 -25 5 -25 25 0 31 -6 31 -81 -1 -34 -14 -62 -24
-64 -22 -1 2 -8 13 -14 26 -12 23 -26 28 -36 13z"/>
<path d="M445 199 c-15 -67 75 -99 98 -35 12 32 -18 66 -57 66 -30 0 -35 -4
-41 -31z"/>
<path d="M668 222 c-48 -3 -63 -17 -31 -29 9 -4 19 -1 21 5 2 7 19 12 37 12
25 0 34 -5 40 -22 4 -13 7 -28 6 -34 -2 -16 27 -26 35 -12 4 5 1 14 -6 18 -7
4 -10 13 -6 19 5 7 13 7 27 -2 17 -10 23 -9 37 8 9 11 24 19 34 17 9 -2 19 2
23 7 3 6 3 12 -2 12 -20 3 -173 4 -215 1z m149 -29 c-3 -3 -11 -2 -17 2 -9 6
-9 10 1 16 14 8 27 -7 16 -18z m-57 7 c0 -5 -4 -10 -10 -10 -5 0 -10 5 -10 10
0 6 5 10 10 10 6 0 10 -4 10 -10z"/>
<path d="M966 211 c-16 -17 -16 -23 -4 -48 9 -19 22 -29 41 -31 51 -6 81 44
46 79 -24 24 -61 24 -83 0z"/>
<path d="M687 194 c-13 -13 -7 -24 14 -24 11 0 19 5 17 12 -5 14 -22 21 -31
12z"/>
<path d="M375 1888 c-32 -18 -44 -40 -51 -90 -5 -37 -11 -48 -24 -48 -33 0
-50 -12 -50 -35 0 -19 -6 -24 -32 -27 -42 -4 -62 -48 -35 -76 16 -15 40 -17
195 -16 226 0 276 17 258 89 -4 15 -16 27 -31 31 -31 8 -31 15 1 53 52 62 3
109 -61 59 -23 -18 -29 -20 -33 -8 -3 8 -20 30 -38 48 -33 33 -64 40 -99 20z
m93 -44 c12 -14 22 -36 22 -50 0 -32 17 -30 60 6 65 56 81 32 24 -37 -31 -38
-33 -44 -17 -49 31 -9 46 -20 57 -38 9 -14 6 -21 -12 -36 -32 -26 -85 -32
-251 -28 -128 3 -144 5 -157 22 -19 27 -5 39 48 42 24 2 45 3 48 4 3 0 -4 7
-14 15 -24 18 -13 32 29 37 27 3 30 7 38 53 14 89 72 117 125 59z"/>
<path d="M1282 248 c-7 -7 -12 -29 -12 -49 0 -32 -4 -37 -27 -43 -16 -3 -44
-19 -63 -36 -51 -44 -34 -53 97 -48 120 5 151 16 177 59 17 28 17 31 1 56 -15
23 -22 25 -61 19 -38 -5 -44 -3 -44 12 0 22 -19 42 -40 42 -9 0 -21 -5 -28
-12z"/>
</g>
</svg>
